<svg width="19" height="20" viewBox="0 0 19 20" fill="none" xmlns="http://www.w3.org/2000/svg">
<path d="M15.8204 6.47408H14.9348C14.9348 4.99194 14.346 3.57049 13.2979 2.52246C12.2499 1.47443 10.8285 0.885646 9.34635 0.885646C7.86421 0.885646 6.44276 1.47443 5.39473 2.52246C4.3467 3.57049 3.75793 4.99194 3.75793 6.47408H2.87228C2.87228 4.75705 3.55437 3.11034 4.7685 1.89621C5.98262 0.68209 7.62932 0 9.34635 0C11.0634 0 12.7101 0.68209 13.9242 1.89621C15.1383 3.11034 15.8204 4.75705 15.8204 6.47408Z" fill="#ECE4DC"/>
<path d="M14.0579 19.7588H4.37778C3.88514 19.7593 3.40772 19.588 3.0278 19.2744C2.64789 18.9608 2.38927 18.5244 2.29651 18.0406L0.923772 10.9111C0.87264 10.7117 0.753635 10.5364 0.587222 10.4152C0.391137 10.2503 0.23622 10.042 0.13475 9.80678C0.03328 9.57155 -0.01195 9.31589 0.00269237 9.06013C0.0342564 8.6279 0.229669 8.22402 0.549005 7.93102C0.86834 7.63802 1.2875 7.47802 1.72085 7.48369H16.9894C17.4248 7.47599 17.8463 7.63649 18.1664 7.93178C18.4864 8.22707 18.6802 8.63441 18.7075 9.069C18.7208 9.32631 18.6731 9.58309 18.5685 9.81853C18.4639 10.054 18.3052 10.2614 18.1053 10.424C17.9361 10.55 17.8119 10.7269 17.751 10.9289L16.1303 18.1026C16.0269 18.5742 15.7646 18.9961 15.3873 19.2976C15.0101 19.599 14.5408 19.7618 14.0579 19.7588ZM1.71201 8.36933C1.50656 8.36593 1.30724 8.43947 1.15321 8.57547C0.999182 8.71148 0.901567 8.90014 0.8795 9.10443C0.87146 9.22487 0.892145 9.34549 0.93988 9.45636C0.987615 9.56723 1.06103 9.66517 1.15405 9.7421C1.47205 9.99386 1.69401 10.3471 1.78285 10.7429L3.16445 17.8723C3.21818 18.1545 3.36888 18.409 3.59047 18.5917C3.81205 18.7745 4.09056 18.874 4.37778 18.8731H14.0579C14.3382 18.8721 14.6099 18.776 14.8287 18.6007C15.0474 18.4254 15.2003 18.1811 15.2624 17.9077L16.8743 10.734C16.9813 10.3396 17.2146 9.99122 17.5385 9.7421C17.6303 9.66607 17.7029 9.56957 17.7506 9.46036C17.7983 9.35115 17.8197 9.23225 17.813 9.11327C17.7951 8.90659 17.6989 8.71455 17.5442 8.57631C17.3895 8.43807 17.1879 8.36404 16.9805 8.36933H1.71201Z" fill="#ECE4DC"/>
<path d="M5.44943 11.4248H4.56378V16.4375H5.44943V11.4248Z" fill="#ECE4DC"/>
<path d="M8.29242 11.4248H7.40677V16.4375H8.29242V11.4248Z" fill="#ECE4DC"/>
<path d="M11.2062 11.4248H10.3205V16.4375H11.2062V11.4248Z" fill="#ECE4DC"/>
<path d="M14.0579 11.4248H13.1722V16.4375H14.0579V11.4248Z" fill="#ECE4DC"/>
</svg>
