<svg width="19" height="20" viewBox="0 0 19 20" fill="none" xmlns="http://www.w3.org/2000/svg">
<path d="M17.2362 20H1.77938C1.52049 19.9986 1.2649 19.9428 1.0297 19.8364C0.7945 19.73 0.58511 19.5755 0.41554 19.3831C0.250216 19.186 0.129757 18.9563 0.0623153 18.7095C-0.00512599 18.4628 -0.0180041 18.2047 0.0245511 17.9526L0.179132 17.0586C0.298743 16.3796 0.568339 15.7347 0.968934 15.1693C1.36953 14.604 1.89136 14.1318 2.49765 13.7863L6.48007 11.5244C6.51266 11.5059 6.54118 11.4812 6.56392 11.4518C6.58666 11.4223 6.60316 11.3887 6.61248 11.3529C6.6218 11.317 6.62373 11.2797 6.61817 11.2432C6.6126 11.2066 6.59967 11.1715 6.5801 11.1399C6.35279 10.7823 6.15274 10.4783 5.9618 10.2011C5.44311 9.51808 5.0465 8.75317 4.78892 7.93919C4.13428 5.66829 4.34339 3.05767 5.26171 1.85963L5.31626 1.78811C5.72541 1.25168 6.67101 0 9.49871 0C12.3264 0 13.3265 1.33214 13.7175 1.83281C14.6267 3.05767 14.8631 5.66829 14.2085 7.93919C13.9509 8.75317 13.5543 9.51808 13.0356 10.2011C12.8446 10.4872 12.6356 10.7912 12.4082 11.1488C12.373 11.2113 12.3628 11.2845 12.3796 11.354C12.3964 11.4235 12.4391 11.4842 12.4991 11.5244L16.4998 13.7863C17.1062 14.1295 17.6283 14.5998 18.029 15.1638C18.4298 15.7278 18.6992 16.3716 18.8183 17.0496L18.9728 17.9437C19.0181 18.1952 19.0067 18.4534 18.9393 18.7001C18.8718 18.9468 18.7501 19.1759 18.5827 19.3712C18.4153 19.5665 18.2063 19.7233 17.9705 19.8304C17.7347 19.9375 17.4778 19.9923 17.218 19.9911L17.2362 20ZM9.51688 0.894054C7.15289 0.894054 6.41643 1.85964 6.06183 2.32455L6.00728 2.40501C5.26171 3.36165 5.09804 5.73089 5.67994 7.69781C5.91546 8.42129 6.27191 9.10113 6.73465 9.70943C6.92559 9.98658 7.3802 10.7108 7.64388 11.2114C7.6858 11.2765 7.71373 11.3493 7.7259 11.4254C7.73806 11.5015 7.7342 11.5793 7.7146 11.6538C7.695 11.7284 7.66007 11.7983 7.61194 11.859C7.5638 11.9198 7.50351 11.9702 7.43477 12.0072L2.96136 14.5641C2.46581 14.8469 2.04005 15.2341 1.71465 15.6978C1.38924 16.1616 1.17226 16.6904 1.07926 17.2463L0.924705 18.1404C0.90546 18.2633 0.912499 18.3888 0.945376 18.5088C0.978253 18.6289 1.03624 18.7409 1.11563 18.8377C1.19982 18.932 1.30324 19.0077 1.41916 19.0601C1.53508 19.1125 1.66089 19.1403 1.78845 19.1417H17.2453C17.3729 19.1403 17.4987 19.1125 17.6146 19.0601C17.7305 19.0077 17.834 18.932 17.9182 18.8377C17.9976 18.7409 18.0555 18.6289 18.0884 18.5088C18.1213 18.3888 18.1283 18.2633 18.1091 18.1404L17.9545 17.2463C17.8615 16.6904 17.6445 16.1616 17.3191 15.6978C16.9937 15.2341 16.568 14.8469 16.0724 14.5641L11.8263 12.1502C11.6302 12.0282 11.489 11.8371 11.4315 11.6161C11.374 11.395 11.4047 11.1607 11.5172 10.9611C11.7991 10.4962 12.1446 9.94188 12.3082 9.70943C12.771 9.10113 13.1274 8.42129 13.3629 7.69781C13.9266 5.73089 13.7812 3.36165 13.0356 2.40501C12.6628 1.93116 11.8627 0.894054 9.51688 0.894054Z" fill="#ECE4DC"/>
</svg>
